<svg xmlns="http://www.w3.org/2000/svg" id="canvas" viewBox="269.986 379.063 1149.449 238.698">
<style>
    path {
        stroke-dasharray: 5000;
        stroke-dashoffset: 5000;
        -webkit-animation: dash 5s ease infinite;
        animation: dash 5s ease infinite;
    }

    @-webkit-keyframes dash {
        to {
            stroke-dashoffset: 0;
        }
    }
    @keyframes dash {
        to {
            stroke-dashoffset: 0;
        }
    }
</style>
<g>
    <path stroke-linecap="null" stroke-linejoin="null" stroke-dasharray="null" stroke-width="5" stroke="#000000" fill="none" d="M 274.44,477.98 C 275.06 477.29, 275.39 476.50, 276.25 474.23 C 277.12 471.95, 277.48 470.40, 278.76 466.60 C 280.04 462.80, 280.78 460.10, 282.65 455.24 C 284.52 450.39, 285.75 447.45, 288.11 442.32 C 290.47 437.19, 291.90 434.41, 294.46 429.61 C 297.03 424.81, 298.47 422.09, 300.92 418.32 C 303.36 414.55, 304.74 412.98, 306.68 410.76 C 308.62 408.55, 309.30 407.63, 310.61 407.24 C 311.91 406.84, 312.19 407.15, 313.20 408.78 C 314.22 410.42, 314.76 411.69, 315.67 415.42 C 316.57 419.15, 317.14 421.77, 317.73 427.44 C 318.32 433.10, 318.57 436.59, 318.63 443.75 C 318.69 450.91, 318.54 455.19, 318.03 463.22 C 317.53 471.25, 317.10 475.82, 316.10 483.89 C 315.09 491.96, 314.38 496.34, 312.99 503.56 C 311.61 510.77, 310.71 514.53, 309.18 519.95 C 307.65 525.37, 306.65 527.58, 305.33 530.66 C 304.01 533.74, 303.44 534.83, 302.58 535.34 C 301.71 535.86, 301.64 535.07, 301.01 533.22 C 300.39 531.37, 299.98 529.51, 299.45 526.09 C 298.93 522.67, 298.52 520.18, 298.39 516.12 C 298.25 512.06, 298.21 509.69, 298.78 505.81 C 299.35 501.93, 299.97 499.96, 301.24 496.73 C 302.51 493.51, 303.23 492.32, 305.13 489.69 C 307.02 487.07, 308.13 485.99, 310.73 483.61 C 313.33 481.23, 314.99 480.25, 318.12 477.81 C 321.25 475.37, 322.99 474.18, 326.37 471.41 C 329.75 468.65, 331.63 467.23, 335.01 463.97 C 338.39 460.71, 340.19 459.04, 343.27 455.11 C 346.34 451.18, 347.81 449.04, 350.39 444.34 C 352.97 439.64, 354.23 437.03, 356.16 431.62 C 358.08 426.22, 358.90 422.90, 360.02 417.31 C 361.14 411.71, 361.47 408.66, 361.77 403.66 C 362.07 398.65, 362.06 396.12, 361.50 392.30 C 360.94 388.48, 360.44 386.60, 358.96 384.56 C 357.47 382.53, 356.17 381.81, 354.08 382.14 C 351.98 382.46, 350.53 383.25, 348.49 386.18 C 346.45 389.11, 345.52 391.43, 343.86 396.79 C 342.21 402.15, 341.40 405.52, 340.21 412.97 C 339.02 420.41, 338.50 425.09, 337.90 434.01 C 337.31 442.94, 337.15 448.31, 337.24 457.59 C 337.33 466.86, 337.53 471.86, 338.37 480.40 C 339.22 488.93, 339.87 493.24, 341.47 500.26 C 343.06 507.27, 344.05 510.53, 346.34 515.47 C 348.64 520.41, 349.89 522.49, 352.93 524.95 C 355.97 527.42, 357.97 527.98, 361.54 527.80 C 365.10 527.62, 367.19 526.64, 370.77 524.05 C 374.36 521.47, 376.26 519.28, 379.47 514.85 C 382.69 510.43, 384.29 507.33, 386.86 501.95 C 389.43 496.56, 390.65 493.27, 392.32 487.95 C 393.99 482.63, 394.63 479.74, 395.21 475.35 C 395.79 470.97, 395.90 468.89, 395.23 466.00 C 394.56 463.12, 393.57 461.86, 391.87 460.93 C 390.18 460.01, 388.69 460.06, 386.75 461.38 C 384.80 462.70, 383.65 464.19, 382.16 467.51 C 380.67 470.84, 380.06 473.26, 379.30 478.02 C 378.54 482.78, 378.29 485.90, 378.37 491.32 C 378.45 496.73, 378.77 500.02, 379.72 505.10 C 380.67 510.18, 381.28 512.88, 383.13 516.73 C 384.98 520.57, 386.22 522.44, 388.99 524.31 C 391.76 526.17, 393.71 526.71, 396.98 526.06 C 400.24 525.41, 401.96 524.20, 405.32 521.08 C 408.68 517.95, 410.41 515.73, 413.77 510.44 C 417.12 505.16, 418.86 501.77, 422.09 494.66 C 425.33 487.55, 426.95 483.13, 429.92 474.89 C 432.90 466.65, 434.43 461.84, 436.96 453.46 C 439.48 445.09, 440.66 440.45, 442.55 433.02 C 444.44 425.59, 445.20 421.93, 446.41 416.34 C 447.62 410.75, 448.35 408.40, 448.59 405.07 C 448.82 401.74, 448.51 400.57, 447.59 399.70 C 446.67 398.82, 445.51 398.86, 443.99 400.70 C 442.47 402.54, 441.52 404.39, 439.99 408.89 C 438.45 413.40, 437.66 416.56, 436.32 423.23 C 434.99 429.91, 434.19 434.16, 433.32 442.26 C 432.44 450.37, 432.03 455.35, 431.96 463.77 C 431.89 472.18, 432.09 476.83, 432.95 484.32 C 433.80 491.82, 434.53 495.56, 436.24 501.26 C 437.96 506.95, 438.94 509.61, 441.53 512.81 C 444.11 516.01, 445.93 517.12, 449.19 517.25 C 452.45 517.37, 454.38 516.29, 457.82 513.44 C 461.26 510.60, 463.04 508.41, 466.39 503.01 C 469.75 497.61, 471.48 493.89, 474.60 486.43 C 477.72 478.98, 479.22 474.21, 482.01 465.73 C 484.79 457.24, 486.23 452.33, 488.51 444.01 C 490.78 435.69, 491.82 431.25, 493.39 424.11 C 494.95 416.98, 495.57 413.53, 496.32 408.33 C 497.08 403.14, 497.54 400.96, 497.17 398.15 C 496.81 395.35, 495.96 394.43, 494.49 394.31 C 493.01 394.19, 491.60 394.80, 489.78 397.55 C 487.97 400.30, 487.06 402.75, 485.40 408.04 C 483.74 413.33, 482.83 416.98, 481.50 424.00 C 480.17 431.02, 479.42 435.45, 478.73 443.13 C 478.05 450.82, 477.84 455.19, 478.07 462.44 C 478.31 469.68, 478.65 473.39, 479.89 479.36 C 481.13 485.32, 482.00 488.02, 484.28 492.25 C 486.55 496.48, 488.08 498.31, 491.26 500.49 C 494.44 502.66, 496.47 503.18, 500.19 503.13 C 503.92 503.07, 506.01 502.18, 509.88 500.21 C 513.76 498.23, 515.89 496.55, 519.58 493.26 C 523.27 489.98, 525.19 487.62, 528.33 483.77 C 531.47 479.91, 532.92 477.49, 535.28 473.98 C 537.65 470.47, 538.97 468.82, 540.15 466.21 C 541.33 463.60, 541.42 462.36, 541.18 460.94 C 540.95 459.53, 540.31 458.99, 538.97 459.13 C 537.64 459.27, 536.32 459.72, 534.53 461.63 C 532.73 463.55, 531.67 465.32, 530.01 468.73 C 528.35 472.14, 527.46 474.47, 526.23 478.68 C 525.01 482.89, 524.32 485.48, 523.88 489.78 C 523.44 494.09, 523.36 496.57, 524.04 500.20 C 524.72 503.84, 525.44 505.73, 527.29 507.96 C 529.15 510.20, 530.71 510.96, 533.32 511.37 C 535.93 511.79, 537.71 511.51, 540.36 510.03 C 543.01 508.55, 544.41 507.05, 546.56 503.98 C 548.71 500.90, 549.80 498.78, 551.13 494.65 C 552.45 490.51, 552.92 487.87, 553.20 483.32 C 553.48 478.77, 553.31 476.18, 552.51 471.90 C 551.71 467.62, 550.93 465.37, 549.20 461.92 C 547.47 458.47, 546.12 456.72, 543.87 454.66 C 541.61 452.61, 539.95 452.08, 537.92 451.66 C 535.89 451.24, 534.62 451.73, 533.74 452.57 C 532.85 453.41, 532.65 454.53, 533.49 455.86 C 534.33 457.20, 535.37 458.31, 537.96 459.25 C 540.55 460.19, 542.61 460.47, 546.45 460.58 C 550.28 460.69, 552.71 460.36, 557.14 459.79 C 561.57 459.22, 564.33 458.60, 568.59 457.74 C 572.85 456.88, 575.26 456.33, 578.44 455.50 C 581.62 454.67, 582.87 453.96, 584.50 453.59 C 586.13 453.23, 586.44 453.15, 586.59 453.67 C 586.74 454.20, 586.16 454.49, 585.26 456.21 C 584.37 457.93, 583.33 459.48, 582.13 462.26 C 580.92 465.05, 580.08 467.02, 579.25 470.12 C 578.42 473.23, 577.91 476.16, 577.99 477.80 C 578.07 479.43, 578.71 479.58, 579.66 478.29 C 580.61 477.00, 581.48 474.23, 582.75 471.34 C 584.01 468.46, 584.87 466.68, 585.98 463.85 C 587.08 461.02, 587.90 459.36, 588.27 457.19 C 588.64 455.01, 588.62 454.17, 587.83 452.99 C 587.04 451.81, 586.33 451.36, 584.31 451.29 C 582.29 451.23, 580.98 451.88, 577.73 452.66 C 574.48 453.44, 572.24 454.30, 568.06 455.19 C 563.88 456.09, 561.12 456.69, 556.83 457.11 C 552.55 457.53, 550.18 457.61, 546.64 457.30 C 543.09 456.99, 541.45 456.16, 539.12 455.55 C 536.79 454.95, 535.93 454.66, 535.00 454.29 C 534.08 453.93, 534.06 453.75, 534.49 453.73 C 534.92 453.70, 535.70 453.53, 537.15 454.17 C 538.61 454.82, 539.83 455.16, 541.78 456.95 C 543.73 458.74, 545.23 460.04, 546.91 463.12 C 548.59 466.20, 549.40 468.33, 550.17 472.34 C 550.95 476.35, 551.10 478.87, 550.80 483.16 C 550.49 487.46, 549.98 490.00, 548.65 493.82 C 547.33 497.64, 546.15 499.57, 544.17 502.27 C 542.19 504.97, 540.86 506.01, 538.76 507.32 C 536.66 508.63, 535.54 509.04, 533.68 508.82 C 531.81 508.60, 530.83 508.07, 529.43 506.25 C 528.04 504.42, 527.28 502.95, 526.68 499.71 C 526.08 496.47, 525.99 494.09, 526.43 490.05 C 526.87 486.01, 527.54 483.45, 528.87 479.50 C 530.19 475.55, 531.34 473.41, 533.05 470.29 C 534.75 467.18, 536.09 465.88, 537.39 463.92 C 538.69 461.96, 539.12 461.13, 539.56 460.51 C 540.01 459.89, 540.05 459.94, 539.62 460.82 C 539.20 461.69, 538.73 462.51, 537.46 464.88 C 536.18 467.25, 535.42 469.17, 533.25 472.67 C 531.08 476.17, 529.64 478.59, 526.61 482.38 C 523.58 486.16, 521.65 488.44, 518.10 491.60 C 514.55 494.76, 512.43 496.31, 508.84 498.17 C 505.25 500.02, 503.42 500.74, 500.14 500.86 C 496.85 500.99, 495.27 500.67, 492.41 498.78 C 489.55 496.88, 488.04 495.35, 485.83 491.40 C 483.63 487.45, 482.65 484.84, 481.39 479.04 C 480.12 473.24, 479.74 469.54, 479.50 462.39 C 479.26 455.24, 479.45 450.88, 480.19 443.27 C 480.93 435.66, 481.72 431.25, 483.18 424.34 C 484.64 417.43, 485.71 413.82, 487.48 408.73 C 489.25 403.64, 490.65 401.58, 492.05 398.89 C 493.45 396.20, 493.88 395.41, 494.48 395.30 C 495.09 395.18, 495.03 395.75, 495.06 398.31 C 495.10 400.87, 495.27 403.01, 494.67 408.12 C 494.08 413.22, 493.55 416.72, 492.08 423.84 C 490.61 430.95, 489.58 435.39, 487.33 443.69 C 485.07 451.99, 483.62 456.90, 480.81 465.33 C 478.00 473.77, 476.46 478.52, 473.28 485.87 C 470.11 493.22, 468.28 496.88, 464.93 502.09 C 461.58 507.29, 459.68 509.28, 456.55 511.91 C 453.41 514.53, 451.97 515.25, 449.25 515.21 C 446.53 515.16, 445.25 514.55, 442.94 511.67 C 440.63 508.79, 439.44 506.31, 437.70 500.81 C 435.97 495.31, 435.16 491.57, 434.28 484.17 C 433.39 476.76, 433.17 472.13, 433.27 463.78 C 433.36 455.43, 433.77 450.46, 434.74 442.42 C 435.71 434.39, 436.60 430.16, 438.10 423.61 C 439.60 417.07, 440.70 414.02, 442.26 409.69 C 443.82 405.36, 444.97 403.85, 445.89 401.95 C 446.82 400.05, 446.77 399.61, 446.89 400.19 C 447.00 400.78, 446.88 401.69, 446.48 404.86 C 446.08 408.03, 445.91 410.46, 444.87 416.03 C 443.83 421.60, 443.10 425.29, 441.28 432.71 C 439.47 440.12, 438.30 444.76, 435.79 453.11 C 433.28 461.46, 431.74 466.27, 428.73 474.45 C 425.73 482.64, 424.07 487.05, 420.78 494.06 C 417.49 501.06, 415.67 504.39, 412.28 509.48 C 408.90 514.57, 407.03 516.64, 403.87 519.49 C 400.71 522.33, 399.20 523.13, 396.50 523.70 C 393.79 524.27, 392.61 523.93, 390.34 522.34 C 388.06 520.75, 386.84 519.28, 385.12 515.76 C 383.41 512.24, 382.69 509.61, 381.77 504.71 C 380.85 499.82, 380.53 496.55, 380.53 491.30 C 380.53 486.05, 380.89 482.97, 381.78 478.46 C 382.66 473.95, 383.64 471.77, 384.95 468.74 C 386.25 465.71, 387.11 464.56, 388.31 463.29 C 389.52 462.02, 390.11 461.75, 390.98 462.40 C 391.84 463.05, 392.24 463.98, 392.66 466.52 C 393.08 469.06, 393.51 470.93, 393.08 475.10 C 392.65 479.28, 392.08 482.18, 390.50 487.38 C 388.91 492.59, 387.69 495.87, 385.15 501.12 C 382.62 506.38, 380.96 509.42, 377.83 513.65 C 374.70 517.88, 372.78 519.89, 369.50 522.30 C 366.21 524.70, 364.48 525.43, 361.40 525.67 C 358.33 525.91, 356.84 525.66, 354.11 523.49 C 351.38 521.32, 350.02 519.51, 347.75 514.81 C 345.47 510.10, 344.37 506.87, 342.73 499.96 C 341.09 493.06, 340.41 488.76, 339.54 480.28 C 338.68 471.80, 338.48 466.81, 338.41 457.58 C 338.34 448.34, 338.51 442.97, 339.18 434.10 C 339.84 425.23, 340.41 420.56, 341.74 413.23 C 343.07 405.89, 344.02 402.54, 345.81 397.43 C 347.60 392.31, 348.97 390.35, 350.69 387.65 C 352.42 384.96, 353.18 384.31, 354.45 383.94 C 355.72 383.57, 356.10 384.05, 357.05 385.79 C 357.99 387.53, 358.62 389.10, 359.17 392.65 C 359.71 396.20, 359.97 398.70, 359.78 403.56 C 359.59 408.42, 359.28 411.46, 358.22 416.95 C 357.15 422.44, 356.34 425.72, 354.45 431.01 C 352.55 436.31, 351.30 438.86, 348.74 443.43 C 346.19 448.00, 344.73 450.07, 341.69 453.86 C 338.64 457.65, 336.87 459.26, 333.52 462.40 C 330.16 465.55, 328.29 466.90, 324.90 469.59 C 321.51 472.27, 319.77 473.40, 316.58 475.81 C 313.40 478.23, 311.68 479.21, 308.97 481.68 C 306.26 484.15, 305.04 485.35, 303.02 488.17 C 300.99 490.99, 300.22 492.35, 298.86 495.79 C 297.50 499.24, 296.88 501.33, 296.20 505.40 C 295.53 509.48, 295.46 511.93, 295.49 516.18 C 295.51 520.42, 295.63 523.00, 296.31 526.63 C 296.99 530.26, 297.53 532.34, 298.89 534.32 C 300.24 536.31, 301.41 537.11, 303.09 536.55 C 304.76 535.99, 305.71 534.76, 307.24 531.52 C 308.77 528.29, 309.32 525.91, 310.74 520.37 C 312.16 514.83, 313.01 511.07, 314.34 503.81 C 315.67 496.54, 316.37 492.15, 317.38 484.05 C 318.39 475.95, 318.83 471.37, 319.39 463.31 C 319.96 455.25, 320.14 450.96, 320.21 443.75 C 320.28 436.54, 320.14 433.05, 319.74 427.26 C 319.34 421.48, 319.14 418.80, 318.21 414.82 C 317.29 410.84, 316.72 409.23, 315.12 407.35 C 313.52 405.48, 312.29 405.09, 310.22 405.43 C 308.15 405.76, 306.99 406.67, 304.77 409.03 C 302.55 411.38, 301.52 413.25, 299.11 417.19 C 296.71 421.12, 295.32 423.85, 292.77 428.71 C 290.21 433.57, 288.77 436.35, 286.32 441.48 C 283.87 446.62, 282.57 449.55, 280.52 454.38 C 278.46 459.21, 277.49 461.85, 276.07 465.64 C 274.65 469.44, 273.98 470.94, 273.40 473.35 C 272.82 475.75, 272.96 476.73, 273.16 477.65 C 273.37 478.58, 273.82 478.67, 274.44 477.98" />
    <path stroke-linecap="null" stroke-linejoin="null" stroke-dasharray="null" stroke-width="5" stroke="#000000" fill="none" d="M 624.39,493.54 C 623.99 494.30, 624.03 495.10, 623.75 497.26 C 623.46 499.42, 623.45 500.82, 622.95 504.33 C 622.45 507.83, 622.26 510.39, 621.24 514.79 C 620.23 519.19, 619.26 521.83, 617.87 526.34 C 616.47 530.84, 615.53 533.45, 614.26 537.31 C 612.99 541.17, 612.16 543.03, 611.51 545.64 C 610.86 548.25, 610.93 549.35, 611.02 550.34 C 611.11 551.33, 611.37 551.39, 611.95 550.60 C 612.52 549.81, 612.96 548.89, 613.90 546.39 C 614.85 543.89, 615.42 541.96, 616.68 538.10 C 617.93 534.23, 618.73 531.59, 620.16 527.06 C 621.60 522.52, 622.64 519.88, 623.83 515.43 C 625.02 510.99, 625.54 508.42, 626.12 504.81 C 626.71 501.20, 626.82 499.67, 626.74 497.40 C 626.66 495.13, 626.19 494.24, 625.72 493.47 C 625.25 492.70, 624.78 492.78, 624.39 493.54" />
    <path stroke-linecap="null" stroke-linejoin="null" stroke-dasharray="null" stroke-width="5" stroke="#000000" fill="none" d="M 704.11,412.35 C 703.72 413.13, 703.48 413.76, 703.41 416.20 C 703.35 418.63, 703.68 420.23, 703.79 424.53 C 703.90 428.83, 704.04 431.66, 703.96 437.69 C 703.89 443.72, 703.68 447.48, 703.40 454.66 C 703.11 461.84, 702.93 466.10, 702.53 473.59 C 702.13 481.09, 701.80 485.32, 701.39 492.14 C 700.99 498.96, 700.81 502.55, 700.49 507.68 C 700.17 512.81, 699.80 514.87, 699.80 517.79 C 699.79 520.71, 700.20 521.34, 700.47 522.29 C 700.75 523.24, 701.03 522.52, 701.19 522.56 C 701.35 522.59, 701.20 522.54, 701.27 522.48 C 701.35 522.42, 701.34 523.17, 701.54 522.24 C 701.74 521.32, 702.12 520.75, 702.27 517.85 C 702.42 514.95, 702.15 512.88, 702.28 507.76 C 702.41 502.63, 702.56 499.04, 702.91 492.22 C 703.25 485.40, 703.57 481.17, 703.99 473.67 C 704.40 466.18, 704.60 461.92, 704.99 454.74 C 705.38 447.55, 705.66 443.79, 705.94 437.75 C 706.23 431.71, 706.34 428.84, 706.41 424.52 C 706.48 420.19, 706.52 418.55, 706.31 416.11 C 706.09 413.67, 705.79 413.06, 705.35 412.31 C 704.91 411.55, 704.50 411.57, 704.11 412.35" />
    <path stroke-linecap="null" stroke-linejoin="null" stroke-dasharray="null" stroke-width="5" stroke="#000000" fill="none" d="M 734.89,403.07 C 734.32 403.92, 733.98 405.53, 733.69 407.41 C 733.39 409.29, 733.30 410.59, 733.41 412.46 C 733.52 414.34, 733.76 415.91, 734.25 416.79 C 734.74 417.66, 735.32 417.67, 735.87 416.84 C 736.41 416.00, 736.68 414.47, 736.97 412.63 C 737.25 410.78, 737.38 409.51, 737.30 407.61 C 737.21 405.71, 737.02 404.06, 736.54 403.15 C 736.06 402.24, 735.46 402.21, 734.89 403.07" />
    <path stroke-linecap="null" stroke-linejoin="null" stroke-dasharray="null" stroke-width="5" stroke="#000000" fill="none" d="M 761.32,457.97 C 760.88 458.78, 760.66 459.77, 760.48 462.01 C 760.31 464.24, 760.48 465.81, 760.43 469.15 C 760.38 472.49, 760.43 474.69, 760.23 478.71 C 760.03 482.73, 759.79 485.12, 759.43 489.23 C 759.06 493.34, 758.64 495.74, 758.39 499.27 C 758.15 502.79, 757.86 504.70, 758.21 506.86 C 758.57 509.02, 759.11 509.82, 760.16 510.07 C 761.21 510.32, 762.07 510.03, 763.46 508.10 C 764.84 506.18, 765.49 504.19, 767.07 500.43 C 768.65 496.67, 769.57 493.74, 771.36 489.30 C 773.15 484.85, 774.28 481.91, 776.01 478.21 C 777.74 474.51, 778.90 472.64, 780.02 470.81 C 781.15 468.98, 781.27 468.49, 781.63 469.05 C 781.99 469.61, 781.66 470.81, 781.82 473.60 C 781.97 476.39, 782.20 478.88, 782.40 483.00 C 782.59 487.13, 782.60 489.96, 782.80 494.21 C 783.00 498.47, 782.85 500.88, 783.38 504.28 C 783.91 507.68, 784.25 509.33, 785.44 511.23 C 786.63 513.13, 787.60 513.73, 789.34 513.78 C 791.07 513.83, 792.19 513.40, 794.12 511.46 C 796.04 509.52, 796.98 507.57, 798.98 504.08 C 800.98 500.59, 802.34 497.70, 804.14 494.00 C 805.94 490.30, 806.91 487.86, 807.99 485.59 C 809.07 483.32, 809.14 482.45, 809.54 482.66 C 809.94 482.87, 809.62 483.93, 810.02 486.65 C 810.41 489.36, 810.66 492.01, 811.49 496.23 C 812.32 500.45, 812.62 503.57, 814.16 507.75 C 815.70 511.93, 816.64 514.30, 819.20 517.13 C 821.75 519.95, 823.43 521.29, 826.93 521.89 C 830.43 522.48, 832.51 522.12, 836.71 520.09 C 840.91 518.06, 843.80 515.60, 847.93 511.74 C 852.06 507.87, 854.18 504.82, 857.36 500.78 C 860.54 496.74, 862.76 493.58, 863.82 491.56 C 864.87 489.54, 864.22 489.09, 862.62 490.68 C 861.01 492.27, 859.03 495.62, 855.80 499.52 C 852.57 503.42, 850.48 506.45, 846.47 510.17 C 842.46 513.89, 839.58 516.24, 835.75 518.14 C 831.92 520.03, 830.26 520.16, 827.32 519.63 C 824.39 519.10, 823.18 518.06, 821.06 515.51 C 818.95 512.95, 818.06 510.81, 816.74 506.84 C 815.42 502.88, 815.21 499.85, 814.47 495.67 C 813.72 491.49, 813.94 488.75, 813.02 485.94 C 812.10 483.12, 811.39 481.98, 809.88 481.59 C 808.36 481.20, 807.15 481.78, 805.43 483.98 C 803.70 486.18, 803.10 488.87, 801.24 492.57 C 799.39 496.26, 798.05 499.09, 796.14 502.46 C 794.23 505.82, 793.06 507.46, 791.69 509.39 C 790.31 511.32, 790.09 511.96, 789.27 512.11 C 788.45 512.27, 788.17 511.80, 787.58 510.15 C 786.99 508.50, 786.69 507.08, 786.30 503.87 C 785.91 500.66, 785.81 498.29, 785.65 494.09 C 785.49 489.90, 785.63 487.07, 785.50 482.88 C 785.37 478.70, 785.62 476.13, 785.00 473.17 C 784.37 470.21, 783.76 468.85, 782.38 468.08 C 781.00 467.30, 779.88 467.50, 778.11 469.29 C 776.34 471.08, 775.40 473.23, 773.54 477.02 C 771.69 480.82, 770.69 483.81, 768.82 488.25 C 766.94 492.68, 765.73 495.50, 764.15 499.19 C 762.57 502.89, 761.68 504.69, 760.91 506.72 C 760.14 508.75, 760.33 509.34, 760.32 509.35 C 760.31 509.36, 760.64 508.74, 760.84 506.77 C 761.05 504.80, 761.11 502.94, 761.37 499.48 C 761.62 496.02, 761.76 493.58, 762.12 489.47 C 762.47 485.36, 762.80 482.96, 763.15 478.91 C 763.49 474.86, 763.76 472.61, 763.85 469.22 C 763.94 465.83, 763.84 464.23, 763.61 461.97 C 763.38 459.72, 763.16 458.75, 762.70 457.95 C 762.24 457.15, 761.77 457.15, 761.32 457.97" />
    <path stroke-linecap="null" stroke-linejoin="null" stroke-dasharray="null" stroke-width="5" stroke="#000000" fill="none" d="M 995.90,404.59 C 995.73 403.84, 995.32 403.07, 994.15 401.94 C 992.97 400.82, 992.09 399.93, 990.03 398.95 C 987.96 397.97, 986.52 397.33, 983.81 397.04 C 981.09 396.75, 979.53 396.63, 976.45 397.50 C 973.38 398.37, 971.83 399.07, 968.45 401.38 C 965.07 403.68, 963.13 405.08, 959.57 409.03 C 956.00 412.98, 954.03 415.47, 950.62 421.11 C 947.20 426.76, 945.31 430.32, 942.50 437.26 C 939.69 444.20, 938.24 448.32, 936.57 455.79 C 934.90 463.26, 934.31 467.46, 934.14 474.61 C 933.97 481.76, 934.33 485.56, 935.70 491.54 C 937.07 497.52, 938.23 500.38, 941.00 504.51 C 943.77 508.63, 945.66 510.27, 949.56 512.18 C 953.45 514.10, 956.03 514.50, 960.46 514.09 C 964.89 513.67, 967.50 512.74, 971.71 510.13 C 975.92 507.52, 978.01 505.34, 981.52 501.04 C 985.02 496.74, 986.71 493.77, 989.23 488.62 C 991.75 483.46, 992.77 480.22, 994.13 475.24 C 995.49 470.27, 995.97 467.52, 996.04 463.74 C 996.12 459.95, 995.50 458.08, 994.50 456.32 C 993.50 454.56, 992.36 454.50, 991.04 454.94 C 989.72 455.38, 988.59 456.33, 987.89 458.52 C 987.20 460.72, 987.03 462.76, 987.55 465.93 C 988.08 469.09, 988.80 471.11, 990.53 474.37 C 992.25 477.62, 993.53 479.52, 996.17 482.20 C 998.81 484.87, 1000.41 486.21, 1003.74 487.74 C 1007.08 489.27, 1009.18 489.71, 1012.84 489.83 C 1016.51 489.95, 1018.52 489.49, 1022.08 488.35 C 1025.65 487.21, 1027.56 486.10, 1030.65 484.13 C 1033.75 482.16, 1035.28 480.77, 1037.56 478.50 C 1039.85 476.22, 1040.97 474.85, 1042.08 472.76 C 1043.18 470.66, 1043.30 469.30, 1043.10 468.03 C 1042.91 466.75, 1042.17 466.14, 1041.09 466.38 C 1040.01 466.61, 1038.85 467.11, 1037.70 469.19 C 1036.55 471.27, 1036.07 473.16, 1035.33 476.76 C 1034.60 480.36, 1034.25 482.96, 1034.02 487.19 C 1033.79 491.42, 1033.75 493.93, 1034.18 497.92 C 1034.61 501.91, 1034.92 504.14, 1036.16 507.13 C 1037.39 510.12, 1038.34 511.46, 1040.37 512.87 C 1042.40 514.27, 1043.80 514.56, 1046.30 514.15 C 1048.80 513.73, 1050.34 512.98, 1052.87 510.81 C 1055.39 508.64, 1056.60 506.84, 1058.92 503.32 C 1061.24 499.79, 1062.41 497.38, 1064.47 493.19 C 1066.53 488.99, 1067.59 486.30, 1069.22 482.35 C 1070.86 478.40, 1071.88 476.11, 1072.64 473.44 C 1073.41 470.76, 1073.23 469.53, 1073.05 468.96 C 1072.87 468.39, 1072.19 468.75, 1071.75 470.57 C 1071.31 472.40, 1070.96 474.54, 1070.84 478.11 C 1070.71 481.67, 1070.75 484.33, 1071.13 488.40 C 1071.51 492.47, 1071.81 494.86, 1072.74 498.45 C 1073.67 502.04, 1074.17 503.94, 1075.79 506.37 C 1077.40 508.79, 1078.51 509.71, 1080.81 510.58 C 1083.11 511.44, 1084.57 511.57, 1087.28 510.70 C 1090.00 509.84, 1091.51 508.75, 1094.39 506.26 C 1097.27 503.76, 1098.91 501.80, 1101.67 498.23 C 1104.42 494.65, 1105.94 491.94, 1108.17 488.38 C 1110.39 484.83, 1111.76 482.72, 1112.80 480.46 C 1113.85 478.21, 1113.60 477.17, 1113.39 477.12 C 1113.18 477.06, 1112.24 477.91, 1111.74 480.18 C 1111.24 482.46, 1110.79 484.88, 1110.88 488.51 C 1110.97 492.15, 1111.18 494.76, 1112.20 498.36 C 1113.21 501.95, 1113.97 504.01, 1115.95 506.49 C 1117.93 508.96, 1119.42 509.95, 1122.10 510.73 C 1124.78 511.50, 1126.52 511.48, 1129.35 510.37 C 1132.19 509.25, 1133.81 507.96, 1136.26 505.16 C 1138.72 502.36, 1140.02 500.23, 1141.63 496.37 C 1143.24 492.51, 1143.91 489.97, 1144.31 485.87 C 1144.71 481.77, 1144.72 479.35, 1143.65 475.87 C 1142.57 472.39, 1141.47 470.46, 1138.94 468.45 C 1136.40 466.45, 1134.30 465.96, 1130.97 465.84 C 1127.64 465.73, 1125.40 466.51, 1122.29 467.89 C 1119.18 469.28, 1117.34 470.53, 1115.41 472.77 C 1113.48 475.02, 1112.90 476.79, 1112.64 479.10 C 1112.38 481.41, 1112.61 482.79, 1114.09 484.34 C 1115.57 485.90, 1117.18 486.88, 1120.06 486.88 C 1122.93 486.89, 1124.86 486.17, 1128.45 484.36 C 1132.04 482.54, 1134.04 481.09, 1138.02 477.80 C 1141.99 474.51, 1144.31 472.48, 1148.32 467.90 C 1152.33 463.32, 1154.44 460.39, 1158.09 454.91 C 1161.73 449.44, 1163.65 446.14, 1166.55 440.53 C 1169.45 434.92, 1170.75 431.84, 1172.59 426.85 C 1174.43 421.86, 1175.14 419.34, 1175.75 415.57 C 1176.36 411.79, 1176.30 409.97, 1175.64 407.98 C 1174.97 405.98, 1174.09 405.38, 1172.44 405.58 C 1170.79 405.78, 1169.36 406.45, 1167.37 408.98 C 1165.38 411.52, 1164.44 413.51, 1162.49 418.27 C 1160.54 423.03, 1159.40 426.18, 1157.62 432.78 C 1155.84 439.38, 1154.82 443.68, 1153.59 451.27 C 1152.37 458.87, 1151.82 463.30, 1151.49 470.77 C 1151.16 478.24, 1151.21 482.30, 1151.96 488.64 C 1152.71 494.97, 1153.43 497.98, 1155.25 502.46 C 1157.07 506.94, 1158.35 508.74, 1161.07 511.04 C 1163.80 513.34, 1165.59 513.95, 1168.88 513.96 C 1172.17 513.96, 1174.03 513.09, 1177.53 511.05 C 1181.03 509.01, 1182.98 507.18, 1186.37 503.76 C 1189.76 500.34, 1191.61 497.59, 1194.47 493.94 C 1197.32 490.29, 1198.95 487.97, 1200.62 485.51 C 1202.29 483.05, 1202.41 481.93, 1202.81 481.63 C 1203.21 481.33, 1202.66 481.95, 1202.62 484.01 C 1202.58 486.08, 1202.38 488.35, 1202.60 491.95 C 1202.81 495.54, 1202.95 498.24, 1203.68 502.01 C 1204.41 505.78, 1204.81 508.03, 1206.26 510.80 C 1207.71 513.56, 1208.73 514.74, 1210.92 515.84 C 1213.12 516.93, 1214.66 517.13, 1217.24 516.27 C 1219.81 515.40, 1221.13 514.30, 1223.80 511.53 C 1226.46 508.76, 1227.78 506.46, 1230.58 502.40 C 1233.39 498.35, 1234.89 495.58, 1237.83 491.27 C 1240.76 486.95, 1242.48 484.53, 1245.25 480.82 C 1248.02 477.11, 1249.74 475.09, 1251.67 472.70 C 1253.60 470.32, 1254.09 469.42, 1254.92 468.92 C 1255.74 468.41, 1255.83 468.73, 1255.81 470.17 C 1255.79 471.61, 1255.37 473.02, 1254.81 476.12 C 1254.25 479.22, 1253.85 481.62, 1253.01 485.67 C 1252.16 489.72, 1251.61 492.34, 1250.60 496.37 C 1249.60 500.40, 1248.65 502.68, 1247.98 505.82 C 1247.31 508.95, 1247.04 510.40, 1247.27 512.04 C 1247.49 513.69, 1248.09 514.24, 1249.11 514.04 C 1250.12 513.84, 1251.16 513.25, 1252.33 511.03 C 1253.51 508.81, 1254.02 506.75, 1254.98 502.94 C 1255.93 499.12, 1256.45 496.28, 1257.10 491.95 C 1257.76 487.62, 1258.13 484.84, 1258.23 481.29 C 1258.34 477.74, 1258.13 475.94, 1257.61 474.19 C 1257.09 472.44, 1256.41 472.11, 1255.63 472.54 C 1254.86 472.97, 1254.09 474.08, 1253.75 476.33 C 1253.42 478.59, 1253.33 480.63, 1253.95 483.81 C 1254.56 486.99, 1255.36 489.07, 1256.84 492.24 C 1258.33 495.42, 1259.25 497.30, 1261.37 499.67 C 1263.50 502.04, 1264.80 503.09, 1267.46 504.08 C 1270.12 505.06, 1271.78 505.17, 1274.69 504.60 C 1277.60 504.03, 1279.13 503.19, 1282.01 501.22 C 1284.88 499.24, 1286.28 497.53, 1289.05 494.73 C 1291.81 491.93, 1293.44 489.98, 1295.83 487.20 C 1298.22 484.42, 1299.52 482.71, 1300.98 480.82 C 1302.44 478.94, 1302.66 477.91, 1303.14 477.77 C 1303.62 477.63, 1303.39 478.29, 1303.37 480.13 C 1303.34 481.97, 1303.03 483.82, 1303.02 486.97 C 1303.00 490.12, 1302.93 492.50, 1303.27 495.87 C 1303.61 499.24, 1303.72 501.29, 1304.71 503.82 C 1305.69 506.35, 1306.51 507.50, 1308.18 508.52 C 1309.86 509.55, 1310.95 509.71, 1313.08 508.94 C 1315.22 508.18, 1316.52 507.10, 1318.86 504.70 C 1321.21 502.29, 1322.50 500.09, 1324.83 496.91 C 1327.16 493.72, 1328.64 491.45, 1330.51 488.78 C 1332.38 486.10, 1333.17 484.58, 1334.18 483.53 C 1335.19 482.47, 1335.22 482.46, 1335.57 483.50 C 1335.91 484.55, 1335.53 486.10, 1335.93 488.74 C 1336.32 491.38, 1336.51 493.64, 1337.53 496.70 C 1338.54 499.75, 1339.10 501.77, 1340.99 504.02 C 1342.89 506.28, 1344.22 507.29, 1346.99 507.95 C 1349.76 508.61, 1351.56 508.49, 1354.83 507.33 C 1358.11 506.17, 1359.94 504.90, 1363.36 502.14 C 1366.79 499.38, 1368.76 497.18, 1371.97 493.54 C 1375.18 489.91, 1377.02 487.44, 1379.42 483.96 C 1381.82 480.47, 1383.03 478.57, 1383.98 476.11 C 1384.93 473.64, 1384.76 472.51, 1384.16 471.65 C 1383.55 470.80, 1382.58 470.84, 1380.95 471.83 C 1379.32 472.83, 1377.80 474.11, 1375.99 476.63 C 1374.19 479.14, 1373.20 481.33, 1371.92 484.40 C 1370.64 487.48, 1369.93 489.39, 1369.59 492.01 C 1369.25 494.63, 1369.31 496.05, 1370.22 497.51 C 1371.13 498.97, 1372.17 499.50, 1374.14 499.31 C 1376.12 499.11, 1377.75 498.44, 1380.09 496.55 C 1382.43 494.66, 1383.62 492.82, 1385.83 489.86 C 1388.04 486.91, 1389.42 484.83, 1391.13 481.78 C 1392.84 478.73, 1393.70 476.78, 1394.38 474.62 C 1395.05 472.46, 1394.81 471.24, 1394.50 470.98 C 1394.18 470.73, 1393.31 471.16, 1392.80 473.34 C 1392.29 475.52, 1392.21 477.37, 1391.96 481.88 C 1391.71 486.38, 1391.71 489.33, 1391.54 495.85 C 1391.36 502.38, 1391.25 506.48, 1391.08 514.51 C 1390.92 522.55, 1390.90 527.31, 1390.72 536.03 C 1390.54 544.76, 1390.59 549.58, 1390.18 558.12 C 1389.78 566.66, 1389.60 571.23, 1388.70 578.74 C 1387.80 586.24, 1387.25 589.99, 1385.69 595.67 C 1384.14 601.34, 1383.15 603.83, 1380.91 607.10 C 1378.67 610.37, 1377.26 611.15, 1374.51 612.01 C 1371.77 612.88, 1370.19 612.62, 1367.17 611.43 C 1364.16 610.25, 1362.17 608.98, 1359.44 606.08 C 1356.71 603.18, 1355.24 600.99, 1353.53 596.92 C 1351.83 592.84, 1351.08 590.45, 1350.93 585.71 C 1350.79 580.96, 1351.01 578.30, 1352.81 573.21 C 1354.60 568.12, 1356.13 565.38, 1359.92 560.25 C 1363.72 555.12, 1366.17 552.60, 1371.79 547.55 C 1377.41 542.50, 1381.64 539.57, 1388.02 535.00 C 1394.41 530.43, 1398.30 528.15, 1403.70 524.71 C 1409.11 521.26, 1412.91 519.39, 1415.05 517.77 C 1417.18 516.16, 1416.78 515.50, 1414.36 516.65 C 1411.95 517.80, 1408.39 520.10, 1402.96 523.54 C 1397.53 526.98, 1393.62 529.25, 1387.20 533.84 C 1380.77 538.43, 1376.54 541.39, 1370.84 546.49 C 1365.13 551.58, 1362.62 554.09, 1358.68 559.32 C 1354.74 564.54, 1353.09 567.32, 1351.14 572.61 C 1349.20 577.89, 1348.88 580.72, 1348.95 585.75 C 1349.01 590.78, 1349.72 593.36, 1351.46 597.76 C 1353.20 602.16, 1354.70 604.56, 1357.67 607.74 C 1360.64 610.92, 1362.83 612.41, 1366.33 613.67 C 1369.83 614.93, 1371.97 615.16, 1375.19 614.04 C 1378.40 612.93, 1380.01 611.70, 1382.40 608.10 C 1384.79 604.51, 1385.62 601.89, 1387.13 596.05 C 1388.65 590.21, 1389.12 586.46, 1389.98 578.88 C 1390.83 571.31, 1390.99 566.74, 1391.39 558.18 C 1391.79 549.62, 1391.74 544.79, 1391.97 536.06 C 1392.19 527.34, 1392.23 522.58, 1392.52 514.55 C 1392.80 506.53, 1392.99 502.43, 1393.39 495.94 C 1393.79 489.44, 1394.11 486.53, 1394.52 482.07 C 1394.94 477.60, 1395.49 475.90, 1395.46 473.62 C 1395.43 471.35, 1395.13 470.74, 1394.36 470.67 C 1393.60 470.61, 1392.87 471.44, 1391.62 473.31 C 1390.37 475.18, 1389.83 477.16, 1388.11 480.04 C 1386.39 482.92, 1385.14 485.00, 1383.02 487.72 C 1380.91 490.45, 1379.42 491.79, 1377.53 493.66 C 1375.63 495.52, 1374.67 496.42, 1373.55 497.04 C 1372.42 497.66, 1372.02 497.61, 1371.91 496.77 C 1371.81 495.92, 1372.24 494.93, 1373.00 492.79 C 1373.75 490.65, 1374.37 488.85, 1375.69 486.08 C 1377.00 483.30, 1378.17 481.41, 1379.57 478.91 C 1380.97 476.41, 1381.92 474.98, 1382.69 473.58 C 1383.46 472.17, 1383.69 471.62, 1383.43 471.88 C 1383.18 472.14, 1382.66 472.77, 1381.42 474.89 C 1380.19 477.01, 1379.50 479.08, 1377.24 482.49 C 1374.99 485.89, 1373.23 488.40, 1370.13 491.92 C 1367.03 495.44, 1365.00 497.56, 1361.75 500.10 C 1358.49 502.64, 1356.68 503.59, 1353.86 504.62 C 1351.04 505.64, 1349.70 505.74, 1347.66 505.22 C 1345.62 504.71, 1344.90 503.98, 1343.65 502.03 C 1342.40 500.09, 1342.20 498.34, 1341.41 495.50 C 1340.61 492.67, 1340.53 490.47, 1339.66 487.85 C 1338.79 485.23, 1338.39 483.62, 1337.05 482.39 C 1335.72 481.17, 1334.83 480.87, 1332.98 481.73 C 1331.13 482.60, 1329.96 484.08, 1327.80 486.72 C 1325.64 489.36, 1324.46 491.83, 1322.16 494.95 C 1319.87 498.07, 1318.35 500.01, 1316.31 502.34 C 1314.28 504.67, 1313.36 505.71, 1311.98 506.60 C 1310.60 507.50, 1310.20 507.58, 1309.39 506.83 C 1308.58 506.08, 1308.38 505.10, 1307.92 502.85 C 1307.46 500.60, 1307.28 498.76, 1307.09 495.56 C 1306.89 492.36, 1307.14 490.04, 1306.94 486.85 C 1306.73 483.67, 1306.81 481.70, 1306.06 479.63 C 1305.31 477.55, 1304.63 476.67, 1303.17 476.49 C 1301.70 476.30, 1300.67 476.97, 1298.73 478.71 C 1296.80 480.46, 1295.83 482.40, 1293.48 485.19 C 1291.12 487.99, 1289.60 489.98, 1286.96 492.68 C 1284.32 495.38, 1282.86 496.93, 1280.28 498.71 C 1277.70 500.50, 1276.42 501.08, 1274.06 501.61 C 1271.71 502.13, 1270.54 502.16, 1268.50 501.35 C 1266.47 500.54, 1265.56 499.65, 1263.88 497.54 C 1262.19 495.44, 1261.26 493.73, 1260.09 490.82 C 1258.93 487.91, 1258.63 485.89, 1258.03 482.99 C 1257.43 480.09, 1257.44 478.34, 1257.08 476.31 C 1256.72 474.29, 1256.55 473.25, 1256.22 472.86 C 1255.89 472.47, 1255.66 472.73, 1255.43 474.38 C 1255.20 476.03, 1255.34 477.71, 1255.09 481.13 C 1254.83 484.55, 1254.84 487.30, 1254.15 491.49 C 1253.46 495.68, 1252.64 498.41, 1251.65 502.07 C 1250.66 505.73, 1249.80 507.53, 1249.19 509.78 C 1248.58 512.02, 1248.58 512.82, 1248.60 513.31 C 1248.62 513.80, 1248.79 513.57, 1249.28 512.22 C 1249.77 510.87, 1250.25 509.59, 1251.06 506.56 C 1251.87 503.52, 1252.35 501.09, 1253.33 497.04 C 1254.32 493.00, 1255.01 490.42, 1255.98 486.34 C 1256.96 482.25, 1257.83 479.94, 1258.20 476.61 C 1258.57 473.29, 1258.58 471.54, 1257.84 469.72 C 1257.09 467.90, 1256.13 467.26, 1254.49 467.50 C 1252.84 467.75, 1251.84 468.53, 1249.62 470.92 C 1247.41 473.32, 1246.12 475.65, 1243.40 479.47 C 1240.68 483.29, 1238.97 485.72, 1236.01 490.03 C 1233.05 494.33, 1231.45 497.09, 1228.60 501.00 C 1225.76 504.91, 1224.24 507.03, 1221.77 509.58 C 1219.31 512.12, 1218.23 512.90, 1216.29 513.73 C 1214.35 514.57, 1213.48 514.60, 1212.05 513.74 C 1210.63 512.88, 1210.16 511.91, 1209.16 509.44 C 1208.15 506.97, 1207.64 504.95, 1207.03 501.40 C 1206.43 497.84, 1206.49 495.21, 1206.12 491.66 C 1205.75 488.10, 1205.88 485.82, 1205.18 483.62 C 1204.48 481.42, 1204.00 480.61, 1202.63 480.64 C 1201.26 480.66, 1200.36 481.39, 1198.32 483.74 C 1196.28 486.09, 1195.17 488.72, 1192.43 492.38 C 1189.70 496.05, 1187.87 498.75, 1184.64 502.06 C 1181.41 505.38, 1179.44 507.04, 1176.28 508.95 C 1173.12 510.85, 1171.62 511.49, 1168.85 511.58 C 1166.07 511.68, 1164.81 511.38, 1162.42 509.42 C 1160.03 507.46, 1158.67 505.97, 1156.88 501.78 C 1155.09 497.58, 1154.26 494.64, 1153.46 488.45 C 1152.67 482.26, 1152.59 478.22, 1152.91 470.83 C 1153.23 463.45, 1153.78 459.03, 1155.06 451.52 C 1156.34 444.00, 1157.40 439.73, 1159.31 433.26 C 1161.22 426.80, 1162.52 423.70, 1164.61 419.20 C 1166.71 414.69, 1168.13 413.18, 1169.78 410.74 C 1171.42 408.30, 1172.04 407.48, 1172.83 407.01 C 1173.63 406.54, 1173.62 406.75, 1173.75 408.39 C 1173.88 410.03, 1174.06 411.63, 1173.49 415.20 C 1172.91 418.77, 1172.54 421.32, 1170.86 426.24 C 1169.18 431.15, 1167.91 434.22, 1165.08 439.77 C 1162.24 445.32, 1160.33 448.61, 1156.71 453.99 C 1153.08 459.37, 1150.97 462.26, 1146.95 466.68 C 1142.94 471.10, 1140.59 473.05, 1136.64 476.08 C 1132.70 479.11, 1130.57 480.31, 1127.23 481.83 C 1123.90 483.35, 1122.26 483.52, 1119.95 483.70 C 1117.65 483.87, 1116.66 483.51, 1115.72 482.69 C 1114.78 481.86, 1114.81 481.11, 1115.26 479.59 C 1115.71 478.07, 1116.29 476.84, 1117.97 475.09 C 1119.64 473.34, 1121.06 472.09, 1123.65 470.83 C 1126.24 469.58, 1128.22 468.85, 1130.93 468.81 C 1133.65 468.77, 1135.19 469.08, 1137.22 470.65 C 1139.25 472.21, 1140.19 473.66, 1141.08 476.65 C 1141.97 479.64, 1142.06 481.87, 1141.67 485.60 C 1141.27 489.33, 1140.62 491.77, 1139.10 495.29 C 1137.57 498.81, 1136.23 500.75, 1134.05 503.20 C 1131.87 505.65, 1130.42 506.56, 1128.19 507.55 C 1125.95 508.53, 1124.81 508.72, 1122.86 508.14 C 1120.91 507.55, 1119.93 506.74, 1118.45 504.61 C 1116.97 502.48, 1116.23 500.75, 1115.46 497.50 C 1114.69 494.26, 1114.73 491.81, 1114.58 488.39 C 1114.43 484.96, 1114.92 482.71, 1114.71 480.37 C 1114.50 478.04, 1114.40 476.99, 1113.53 476.72 C 1112.66 476.44, 1111.92 476.95, 1110.36 478.98 C 1108.81 481.02, 1107.91 483.36, 1105.75 486.88 C 1103.58 490.40, 1102.18 493.14, 1099.52 496.57 C 1096.87 500.00, 1095.11 501.76, 1092.47 504.03 C 1089.82 506.29, 1088.45 507.04, 1086.29 507.89 C 1084.14 508.75, 1083.28 508.91, 1081.68 508.29 C 1080.07 507.68, 1079.50 506.92, 1078.28 504.81 C 1077.07 502.70, 1076.38 501.07, 1075.59 497.74 C 1074.80 494.41, 1074.59 492.07, 1074.35 488.15 C 1074.12 484.24, 1074.45 481.66, 1074.41 478.15 C 1074.38 474.64, 1074.56 472.54, 1074.18 470.61 C 1073.79 468.69, 1073.37 468.17, 1072.48 468.52 C 1071.59 468.87, 1070.86 469.80, 1069.72 472.38 C 1068.58 474.95, 1068.29 477.44, 1066.79 481.38 C 1065.29 485.32, 1064.26 488.00, 1062.23 492.08 C 1060.20 496.16, 1058.92 498.49, 1056.64 501.77 C 1054.35 505.04, 1052.97 506.49, 1050.80 508.45 C 1048.62 510.42, 1047.56 511.09, 1045.76 511.58 C 1043.97 512.07, 1043.19 512.01, 1041.81 510.91 C 1040.44 509.80, 1039.88 508.71, 1038.90 506.05 C 1037.93 503.40, 1037.32 501.36, 1036.94 497.63 C 1036.55 493.90, 1036.58 491.43, 1036.97 487.41 C 1037.37 483.40, 1038.09 480.92, 1038.89 477.55 C 1039.70 474.18, 1040.40 472.60, 1040.98 470.58 C 1041.57 468.56, 1041.74 467.99, 1041.82 467.43 C 1041.89 466.87, 1041.84 467.04, 1041.34 467.77 C 1040.85 468.50, 1040.57 469.40, 1039.36 471.10 C 1038.15 472.79, 1037.34 474.12, 1035.28 476.25 C 1033.23 478.38, 1031.90 479.84, 1029.09 481.74 C 1026.28 483.63, 1024.46 484.66, 1021.23 485.74 C 1018.00 486.82, 1016.20 487.23, 1012.93 487.13 C 1009.66 487.03, 1007.83 486.63, 1004.90 485.25 C 1001.96 483.86, 1000.54 482.67, 998.25 480.20 C 995.97 477.73, 994.83 475.91, 993.46 472.92 C 992.10 469.93, 991.95 468.02, 991.44 465.25 C 990.94 462.48, 990.91 460.91, 990.94 459.08 C 990.98 457.24, 991.27 456.48, 991.62 456.08 C 991.96 455.68, 992.27 455.58, 992.67 457.10 C 993.06 458.62, 993.69 460.15, 993.59 463.68 C 993.49 467.20, 993.38 469.91, 992.17 474.73 C 990.96 479.55, 989.96 482.77, 987.53 487.79 C 985.10 492.81, 983.41 495.70, 980.03 499.83 C 976.66 503.95, 974.61 505.97, 970.65 508.42 C 966.70 510.87, 964.32 511.66, 960.27 512.06 C 956.22 512.47, 953.96 512.17, 950.39 510.47 C 946.82 508.76, 945.05 507.40, 942.41 503.54 C 939.77 499.69, 938.56 496.98, 937.19 491.19 C 935.81 485.41, 935.39 481.66, 935.54 474.64 C 935.69 467.62, 936.25 463.46, 937.92 456.10 C 939.58 448.73, 941.04 444.64, 943.86 437.82 C 946.69 431.00, 948.61 427.48, 952.05 422.00 C 955.49 416.52, 957.51 414.12, 961.06 410.42 C 964.62 406.73, 966.60 405.48, 969.84 403.53 C 973.07 401.58, 974.54 401.22, 977.23 400.67 C 979.93 400.12, 981.07 400.39, 983.30 400.77 C 985.53 401.16, 986.60 401.81, 988.40 402.57 C 990.20 403.33, 990.99 403.94, 992.31 404.56 C 993.62 405.18, 994.25 405.67, 994.97 405.68 C 995.69 405.68, 996.06 405.33, 995.90 404.59" />
</g>
</svg>